<svg id="Capa_1" data-name="Capa 1" xmlns="http://www.w3.org/2000/svg" viewBox="0 0 3343.43 479.15"><defs><style>.cls-1{fill:#d07c75;}.cls-2{fill:#445970;}.cls-3{fill:#e6b957;}</style></defs><title>logo-bd-color</title><path class="cls-1" d="M932.38,131l-20.62,30.7c-5.27-2.88-16.31-7.67-33.58-7.67-35,0-67.63,30.23-67.63,72.91v134.3h-42.2V121.43H807.2l1.92,36.45c17.27-24.94,43.17-41.24,71-41.24C905.52,116.63,919,120.95,932.38,131Z" transform="translate(0 -0.72)"/><path class="cls-1" d="M928.42,241.34c0-69.55,47-124.71,117-124.71,69.54,0,117,55.16,117,124.71,0,69.06-47.49,124.69-117,124.69C975.43,366,928.42,310.41,928.42,241.34Zm192.34,0c0-48.46-29.26-87.3-75.3-87.3-47,0-75.31,38.85-75.31,87.3s28.3,86.81,75.31,86.81C1091.51,328.16,1120.76,289.79,1120.76,241.34Z" transform="translate(0 -0.72)"/><path class="cls-1" d="M1910,255.25H1728.66c4.32,44.13,29.74,73.87,74.35,73.87,28.78,0,47-10.07,66.19-39.82l29.74,20.63c-19.66,35.49-52.28,56.11-97.36,56.11-71,0-114.16-52.75-114.16-124.22s43.65-125.18,114.16-125.18c68.58,0,108.88,51.79,108.88,124.71C1910.44,245.66,1910.44,250.45,1910,255.25Zm-180.35-33.09h142.45c-4.32-42.21-28.78-69.07-69.55-69.07C1760.8,153.08,1735.85,180.9,1729.62,222.16Z" transform="translate(0 -0.72)"/><path class="cls-1" d="M1402.31,311.45l-39.54-119.53h-40.6l0,0.1L1282.88,310.5l-60-189h-48l82.5,239.82h46l38.38-114.15,39.8,114.15h46.53l24.3-71C1429,288.72,1410.87,294.39,1402.31,311.45Z" transform="translate(0 -0.72)"/><path class="cls-1" d="M1580.56,222.63c-29.26-8.63-56.12-16.79-56.12-41.25,0-22.05,27.83-32.61,52.29-30.69,18.7,1.44,39.33,9.6,52.28,21.59l23.5-28.79c-19.18-15.34-52.28-26.85-83-26.85-46,0-88.25,27.34-88.25,70,0,44.61,41.72,57.09,78.18,68.59,30.69,9.11,58.51,16.79,58.51,41.24,0,22.56-23.5,35.5-52.76,34.53-28.3-.47-61.87-13.42-73.86-30.69l-0.59.77-12.52,36.62c20.6,16.64,56,28.31,89.37,28.31,52.76,0,93-30.21,93-72.9C1660.66,245.18,1618,233.18,1580.56,222.63Z" transform="translate(0 -0.72)"/><path class="cls-1" d="M662,176.11c27.82-14.86,46-42.21,46-78.66,0-57.08-44.6-95.92-100.24-95.92H485V361.25H636.07c55.16,0,99.28-38.38,99.28-95.45C735.36,218.32,704.19,186.66,662,176.11ZM630.32,322.4H528.64v-282H603a61.1,61.1,0,0,1,61.39,60.92c0,26.86-16,51.16-39.94,59.65l-0.11.24c-14.05,5.39-23,19.19-28.11,38.4H620.1v0h10.22c34.05,0,61.39,27.82,61.39,60.91C691.71,294.57,664.37,322.4,630.32,322.4Z" transform="translate(0 -0.72)"/><path class="cls-1" d="M2087.71,2.73H2187.9c98.77,0,178.93,80.16,178.93,178.93s-80.16,178.93-178.93,178.93H2087.71V2.73ZM2187.9,321.94c75.39,0,135.51-62,135.51-140.28S2263.29,41.37,2187.9,41.37h-56.78V321.94h56.78Z" transform="translate(0 -0.72)"/><path class="cls-1" d="M2396.18,50.44a28.21,28.21,0,0,1,28.15-28.15c14.79,0,27.67,12.41,27.67,28.15,0,15.27-12.88,27.2-27.67,27.2C2409.07,77.64,2396.18,65.71,2396.18,50.44Zm6.68,71.57h42V360.58h-42V122Z" transform="translate(0 -0.72)"/><path class="cls-1" d="M2737.2,50.44a28.2,28.2,0,0,1,28.15-28.15c14.79,0,27.68,12.41,27.68,28.15,0,15.27-12.89,27.2-27.68,27.2C2750.08,77.64,2737.2,65.71,2737.2,50.44Zm6.68,71.57h42V360.58h-42V122Z" transform="translate(0 -0.72)"/><path class="cls-1" d="M2974.68,346.75c-11.45,11.93-28.15,18.61-50.1,18.61-44.38,0-73-29.11-73-71.57V154.93h-31V122h31V40.9h42V122h64.89v32.92H2894V293.78c0,23.38,11.93,35.31,31.49,35.31,10.5,0,18.61-3.34,25.77-11Z" transform="translate(0 -0.72)"/><path class="cls-1" d="M3186.53,207.9V360.58h-37.22l-2.39-33.88c-25.76,22.9-57.26,38.65-88.27,38.65-42.46,0-73-30.54-73-73S3018.1,212.19,3101.6,226l43.42,7.15V205c0-36.26-26.72-52-59.17-52-28.15,0-49.62,11.45-63.93,32.92l-29.11-25.77c18.13-26.24,49.62-42.94,94.95-42.94C3142.64,117.24,3186.53,146.35,3186.53,207.9ZM3068.2,327.66c27.67,0,54.39-15.75,76.82-36.26V264.2l-39.12-6.68c-60.13-11-77.3,9.54-77.3,32.92C3028.59,312.87,3044.34,327.66,3068.2,327.66Z" transform="translate(0 -0.72)"/><path class="cls-1" d="M3220.33,293.78V2.73h42l0.47,291.06c0,23.38,11.93,35.31,31.49,35.31,10.5,0,18.61-3.34,25.77-11l23.38,28.63c-11.45,11.93-28.63,18.61-50.1,18.61C3248.48,365.36,3220.33,336.25,3220.33,293.78Z" transform="translate(0 -0.72)"/><path class="cls-1" d="M2709,197.32L2708.89,123v0h0V122c-21.89,6.13-36.75,17.09-39.84,34.93l-0.08-.1c-19.09-24.33-46.76-39.6-79.68-39.6-67.28,0-109.74,54.39-109.74,124.06,0,69.19,42.46,124.06,109.74,124.06,32,0,59.17-14.31,78.25-37.69v30.06c0,52-27.67,84.93-68.23,84.93-32.93,0-57.26-12.89-76.34-31v45.81c20,13.83,43.42,22.42,73.47,22.42,69.19,0,112.61-52.49,112.61-122.15l-0.11-160.37Zm-41.51,69.27c-9.54,35.3-38.17,61.07-71.57,61.07-46.76,0-74.91-38.65-74.91-86.37,0-48.19,28.15-86.84,74.91-86.84,33.4,0,62,25.77,71.57,61.55v50.58Z" transform="translate(0 -0.72)"/><path class="cls-2" d="M276.77,43.15c23.43,37.08,22.47,76.61,3.73,109.61,27.18-9,55-9.32,79.71,0V0.72H230.15C248.27,9.59,264.45,23.64,276.77,43.15Z" transform="translate(0 -0.72)"/><path class="cls-3" d="M113.15,10A138.49,138.49,0,0,1,130.71.72H0V81.51Z" transform="translate(0 -0.72)"/><polygon class="cls-1" points="0 106.81 0 360.21 160.13 360.21 0 106.81"/></svg>